<svg width="31.88" height="32"  viewBox="0 0 185 33" fill="none" xmlns="http://www.w3.org/2000/svg">
<path d="M11.4961 28.6763C9.07997 28.6763 7.02756 28.2607 5.33887 27.4295C3.67616 26.5723 2.40314 25.3645 1.51982 23.806C0.636507 22.2215 0.142889 20.3254 0.0389698 18.1175C0.0129899 17.0525 0 15.9096 0 14.6888C0 13.468 0.0129899 12.2991 0.0389698 11.1822C0.142889 9.00031 0.636507 7.11713 1.51982 5.53265C2.42912 3.94818 3.71513 2.74035 5.37784 1.90915C7.06653 1.05198 9.10595 0.623397 11.4961 0.623397C13.2627 0.623397 14.8475 0.857171 16.2504 1.32472C17.6533 1.79227 18.8484 2.44164 19.8357 3.27284C20.8229 4.07806 21.5893 5.02615 22.1349 6.11709C22.6804 7.20804 22.9662 8.3899 22.9922 9.66267C23.0182 9.89644 22.9402 10.0913 22.7584 10.2471C22.6025 10.403 22.4077 10.4809 22.1738 10.4809H18.4717C18.1859 10.4809 17.9521 10.4159 17.7702 10.2861C17.5884 10.1302 17.4585 9.88345 17.3806 9.54578C16.9649 7.83143 16.2504 6.66256 15.2372 6.03917C14.224 5.41577 12.964 5.10407 11.4571 5.10407C9.71648 5.10407 8.32656 5.59759 7.28736 6.58464C6.24817 7.54571 5.6896 9.14317 5.61166 11.377C5.53372 13.507 5.53372 15.6888 5.61166 17.9227C5.6896 20.1565 6.24817 21.767 7.28736 22.754C8.32656 23.7151 9.71648 24.1956 11.4571 24.1956C12.964 24.1956 14.224 23.8839 15.2372 23.2605C16.2504 22.6112 16.9649 21.4423 17.3806 19.7539C17.4585 19.3903 17.5884 19.1435 17.7702 19.0136C17.9521 18.8838 18.1859 18.8188 18.4717 18.8188H22.1738C22.4077 18.8188 22.6025 18.8967 22.7584 19.0526C22.9402 19.2084 23.0182 19.4033 22.9922 19.637C22.9662 20.9098 22.6804 22.0917 22.1349 23.1826C21.5893 24.2736 20.8229 25.2346 19.8357 26.0658C18.8484 26.871 17.6533 27.5074 16.2504 27.975C14.8475 28.4425 13.2627 28.6763 11.4961 28.6763Z" fill="white"/>
<path d="M63.003 28.2867C62.7432 28.2867 62.5223 28.1958 62.3405 28.0139C62.1586 27.8321 62.0677 27.6113 62.0677 27.3516V1.55849C62.0677 1.29874 62.1586 1.07796 62.3405 0.896134C62.5223 0.714309 62.7432 0.623397 63.003 0.623397H66.2375C66.4973 0.623397 66.7181 0.714309 66.9 0.896134C67.0818 1.07796 67.1727 1.29874 67.1727 1.55849V27.3516C67.1727 27.6113 67.0818 27.8321 66.9 28.0139C66.7181 28.1958 66.4973 28.2867 66.2375 28.2867H63.003Z" fill="white"/>
<path d="M73.3163 28.2867C73.0565 28.2867 72.8357 28.1958 72.6538 28.0139C72.4719 27.8321 72.381 27.6113 72.381 27.3516V1.55849C72.381 1.29874 72.4719 1.07796 72.6538 0.896134C72.8357 0.714309 73.0565 0.623397 73.3163 0.623397H76.5508C76.8106 0.623397 77.0314 0.714309 77.2133 0.896134C77.3951 1.07796 77.4861 1.29874 77.4861 1.55849V27.3516C77.4861 27.6113 77.3951 27.8321 77.2133 28.0139C77.0314 28.1958 76.8106 28.2867 76.5508 28.2867H73.3163Z" fill="white"/>
<path d="M84.4279 28.2867C84.1681 28.2867 83.9472 28.1958 83.7654 28.0139C83.5835 27.8321 83.4926 27.6113 83.4926 27.3516V8.96134C83.4926 8.70159 83.5835 8.48081 83.7654 8.29898C83.9472 8.11716 84.1681 8.02625 84.4279 8.02625H87.6624C87.9481 8.02625 88.169 8.11716 88.3248 8.29898C88.5067 8.48081 88.5976 8.70159 88.5976 8.96134V27.3516C88.5976 27.6113 88.5067 27.8321 88.3248 28.0139C88.169 28.1958 87.9481 28.2867 87.6624 28.2867H84.4279ZM84.272 4.67548C83.9862 4.67548 83.7524 4.59756 83.5705 4.44171C83.4146 4.25988 83.3367 4.02611 83.3367 3.74039V0.935096C83.3367 0.675347 83.4146 0.454561 83.5705 0.272735C83.7524 0.0909118 83.9862 0 84.272 0H87.8182C88.104 0 88.3378 0.0909118 88.5197 0.272735C88.7015 0.454561 88.7925 0.675347 88.7925 0.935096V3.74039C88.7925 4.02611 88.7015 4.25988 88.5197 4.44171C88.3378 4.59756 88.104 4.67548 87.8182 4.67548H84.272Z" fill="white"/>
<path d="M101.289 28.6763C99.9381 28.6763 98.743 28.4555 97.7038 28.0139C96.6906 27.5464 95.8462 26.897 95.1707 26.0658C94.4953 25.2346 93.9757 24.2606 93.612 23.1436C93.2482 22.0007 93.0404 20.754 92.9884 19.4033C92.9625 18.9357 92.9495 18.5201 92.9495 18.1565C92.9495 17.7668 92.9625 17.3383 92.9884 16.8707C93.0404 15.572 93.2352 14.3641 93.573 13.2472C93.9367 12.1303 94.4563 11.1562 95.1318 10.325C95.8332 9.46785 96.6906 8.80549 97.7038 8.33794C98.743 7.8704 99.9381 7.63662 101.289 7.63662C102.692 7.63662 103.874 7.88339 104.835 8.37691C105.823 8.84446 106.641 9.45487 107.29 10.2081V1.55849C107.29 1.29874 107.368 1.07796 107.524 0.896134C107.706 0.714309 107.94 0.623397 108.226 0.623397H111.538C111.798 0.623397 112.019 0.714309 112.201 0.896134C112.382 1.07796 112.473 1.29874 112.473 1.55849V27.3516C112.473 27.6113 112.382 27.8321 112.201 28.0139C112.019 28.1958 111.798 28.2867 111.538 28.2867H108.459C108.174 28.2867 107.94 28.1958 107.758 28.0139C107.602 27.8321 107.524 27.6113 107.524 27.3516V25.91C106.875 26.7152 106.043 27.3776 105.03 27.8971C104.043 28.4166 102.796 28.6763 101.289 28.6763ZM102.731 24.5073C103.822 24.5073 104.692 24.2606 105.342 23.767C105.991 23.2735 106.472 22.6501 106.784 21.8968C107.096 21.1176 107.264 20.3254 107.29 19.5201C107.316 19.0526 107.329 18.5591 107.329 18.0396C107.329 17.4941 107.316 16.9876 107.29 16.52C107.264 15.7408 107.083 15.0005 106.745 14.2992C106.407 13.5719 105.913 12.9745 105.264 12.5069C104.614 12.0394 103.77 11.8056 102.731 11.8056C101.64 11.8056 100.769 12.0524 100.12 12.5459C99.4964 13.0134 99.0418 13.6368 98.756 14.4161C98.4702 15.1953 98.3013 16.0525 98.2494 16.9876C98.2234 17.7668 98.2234 18.5461 98.2494 19.3253C98.3013 20.2604 98.4702 21.1176 98.756 21.8968C99.0418 22.6761 99.4964 23.3125 100.12 23.806C100.769 24.2736 101.64 24.5073 102.731 24.5073Z" fill="white"/>
<path d="M126.397 28.6763C123.513 28.6763 121.227 27.8451 119.538 26.1827C117.849 24.5203 116.94 22.1566 116.81 19.0916C116.784 18.8318 116.771 18.5071 116.771 18.1175C116.771 17.7019 116.784 17.3772 116.81 17.1434C116.914 15.1953 117.356 13.507 118.135 12.0783C118.94 10.6497 120.044 9.55877 121.447 8.80549C122.85 8.02625 124.5 7.63662 126.397 7.63662C128.501 7.63662 130.268 8.0782 131.696 8.96134C133.125 9.81851 134.204 11.0263 134.931 12.5848C135.658 14.1174 136.022 15.8966 136.022 17.9227V18.7409C136.022 19.0006 135.931 19.2214 135.749 19.4033C135.567 19.5851 135.334 19.676 135.048 19.676H122.11C122.11 19.676 122.11 19.715 122.11 19.7929C122.11 19.8708 122.11 19.9357 122.11 19.9877C122.136 20.8968 122.305 21.741 122.616 22.5202C122.954 23.2735 123.435 23.8839 124.058 24.3515C124.708 24.819 125.474 25.0528 126.358 25.0528C127.085 25.0528 127.696 24.9489 128.189 24.7411C128.683 24.5073 129.085 24.2476 129.397 23.9619C129.709 23.6761 129.93 23.4424 130.06 23.2605C130.294 22.9488 130.475 22.767 130.605 22.7151C130.761 22.6371 130.982 22.5982 131.268 22.5982H134.619C134.879 22.5982 135.087 22.6761 135.243 22.8319C135.425 22.9878 135.503 23.1826 135.477 23.4164C135.451 23.832 135.23 24.3385 134.814 24.9359C134.424 25.5333 133.853 26.1178 133.099 26.6892C132.346 27.2607 131.398 27.7412 130.255 28.1308C129.137 28.4945 127.851 28.6763 126.397 28.6763ZM122.11 16.4032H130.722V16.2863C130.722 15.2732 130.553 14.3901 130.216 13.6368C129.878 12.8836 129.384 12.2861 128.735 11.8446C128.085 11.403 127.306 11.1822 126.397 11.1822C125.487 11.1822 124.708 11.403 124.058 11.8446C123.409 12.2861 122.915 12.8836 122.577 13.6368C122.266 14.3901 122.11 15.2732 122.11 16.2863V16.4032Z" fill="white"/>
<path d="M47.1823 11.7968C46.4626 16.9751 41.6806 20.5896 36.5013 19.8701C31.322 19.1505 27.7068 14.3694 28.4265 9.19112C29.1462 4.01285 33.9283 0.398355 39.1075 1.11791C44.2868 1.83746 47.902 6.61858 47.1823 11.7968Z" fill="#6FC78F"/>
<path d="M55.57 20.2257C54.8503 25.4039 50.0682 29.0184 44.889 28.2989C39.7097 27.5793 36.0945 22.7982 36.8142 17.62C37.5339 12.4417 42.3159 8.8272 47.4952 9.54675C52.6745 10.2663 56.2896 15.0474 55.57 20.2257Z" fill="white"/>
<path d="M139.358 27.0276C139.095 27.0276 138.87 26.9335 138.682 26.7453C138.494 26.5571 138.399 26.3316 138.399 26.0688C138.399 25.806 138.494 25.5805 138.682 25.3923C138.87 25.2041 139.095 25.11 139.358 25.11C139.621 25.11 139.847 25.2041 140.035 25.3923C140.223 25.5805 140.317 25.806 140.317 26.0688C140.317 26.2428 140.273 26.4026 140.184 26.5482C140.099 26.6938 139.983 26.811 139.838 26.8998C139.696 26.985 139.536 27.0276 139.358 27.0276ZM144.981 27.1341C144.462 27.1341 143.992 27.0365 143.569 26.8412C143.146 26.6423 142.811 26.3564 142.562 25.9836C142.314 25.6072 142.189 25.1526 142.189 24.6199C142.189 24.1512 142.282 23.7712 142.466 23.48C142.651 23.1853 142.898 22.9545 143.207 22.7876C143.516 22.6206 143.857 22.4964 144.23 22.4147C144.606 22.3295 144.984 22.262 145.364 22.2123C145.861 22.1483 146.264 22.1004 146.573 22.0684C146.886 22.0329 147.113 21.9743 147.255 21.8927C147.401 21.811 147.473 21.6689 147.473 21.4665V21.4239C147.473 20.8983 147.33 20.49 147.042 20.1988C146.758 19.9076 146.326 19.762 145.748 19.762C145.148 19.762 144.677 19.8934 144.336 20.1562C143.995 20.4189 143.755 20.6995 143.617 20.9978L142.424 20.5716C142.637 20.0745 142.921 19.6874 143.276 19.4104C143.635 19.1299 144.025 18.9346 144.448 18.8245C144.874 18.7108 145.293 18.654 145.705 18.654C145.968 18.654 146.27 18.686 146.611 18.7499C146.955 18.8103 147.287 18.9363 147.607 19.1281C147.93 19.3199 148.198 19.6093 148.411 19.9964C148.624 20.3834 148.731 20.9019 148.731 21.5518V26.9424H147.473V25.8344H147.41C147.324 26.012 147.182 26.202 146.983 26.4044C146.785 26.6068 146.52 26.779 146.19 26.9211C145.86 27.0631 145.456 27.1341 144.981 27.1341ZM145.172 26.0049C145.67 26.0049 146.089 25.9072 146.429 25.7119C146.774 25.5166 147.033 25.2645 147.207 24.9555C147.385 24.6466 147.473 24.3216 147.473 23.9807V22.8302C147.42 22.8941 147.303 22.9527 147.122 23.0059C146.944 23.0557 146.738 23.1001 146.504 23.1391C146.273 23.1746 146.048 23.2066 145.828 23.235C145.611 23.2599 145.435 23.2812 145.3 23.2989C144.973 23.3415 144.668 23.4108 144.384 23.5067C144.103 23.599 143.876 23.7393 143.702 23.9275C143.532 24.1121 143.447 24.3643 143.447 24.6839C143.447 25.1206 143.608 25.4509 143.931 25.6746C144.258 25.8948 144.672 26.0049 145.172 26.0049ZM154.669 18.7606V19.8259H150.258V18.7606H154.669ZM151.579 26.9424V17.6313C151.579 17.1626 151.689 16.7719 151.909 16.4594C152.129 16.1469 152.415 15.9126 152.767 15.7563C153.118 15.6001 153.49 15.5219 153.88 15.5219C154.189 15.5219 154.441 15.5468 154.637 15.5965C154.832 15.6462 154.977 15.6924 155.073 15.735L154.711 16.8216C154.647 16.8003 154.558 16.7737 154.445 16.7417C154.335 16.7098 154.189 16.6938 154.008 16.6938C153.593 16.6938 153.292 16.7986 153.108 17.0081C152.927 17.2176 152.836 17.5248 152.836 17.9296V26.9424H151.579ZM156.43 26.9424V18.7606H157.645V19.9964H157.73C157.879 19.5915 158.149 19.2631 158.54 19.0109C158.93 18.7588 159.371 18.6327 159.861 18.6327C159.953 18.6327 160.068 18.6345 160.207 18.6381C160.345 18.6416 160.45 18.6469 160.521 18.654V19.9324C160.479 19.9218 160.381 19.9058 160.228 19.8845C160.079 19.8596 159.921 19.8472 159.754 19.8472C159.356 19.8472 159.001 19.9307 158.689 20.0976C158.38 20.2609 158.135 20.4882 157.954 20.7794C157.776 21.067 157.687 21.3955 157.687 21.7648V26.9424H156.43ZM162.011 26.9424V18.7606H163.269V26.9424H162.011ZM162.651 17.3969C162.406 17.3969 162.194 17.3135 162.017 17.1466C161.843 16.9797 161.756 16.779 161.756 16.5447C161.756 16.3103 161.843 16.1096 162.017 15.9427C162.194 15.7758 162.406 15.6924 162.651 15.6924C162.896 15.6924 163.105 15.7758 163.279 15.9427C163.457 16.1096 163.545 16.3103 163.545 16.5447C163.545 16.779 163.457 16.9797 163.279 17.1466C163.105 17.3135 162.896 17.3969 162.651 17.3969ZM168.895 27.1128C168.128 27.1128 167.467 26.9317 166.913 26.5695C166.359 26.2073 165.933 25.7084 165.635 25.0727C165.337 24.4371 165.187 23.7108 165.187 22.8941C165.187 22.0631 165.34 21.3298 165.646 20.6942C165.955 20.055 166.384 19.556 166.935 19.1974C167.489 18.8351 168.135 18.654 168.874 18.654C169.449 18.654 169.967 18.7606 170.429 18.9736C170.891 19.1867 171.269 19.485 171.564 19.8685C171.858 20.252 172.041 20.6995 172.112 21.2108H170.855C170.759 20.838 170.546 20.5077 170.216 20.2201C169.889 19.9289 169.449 19.7833 168.895 19.7833C168.405 19.7833 167.975 19.9111 167.606 20.1668C167.24 20.4189 166.954 20.7758 166.748 21.2375C166.546 21.6956 166.445 22.2336 166.445 22.8515C166.445 23.4836 166.544 24.034 166.743 24.5028C166.945 24.9715 167.229 25.3355 167.595 25.5947C167.964 25.854 168.398 25.9836 168.895 25.9836C169.222 25.9836 169.518 25.9268 169.784 25.8131C170.051 25.6995 170.276 25.5361 170.461 25.3231C170.646 25.11 170.777 24.8543 170.855 24.556H172.112C172.041 25.039 171.865 25.474 171.585 25.8611C171.308 26.2446 170.94 26.55 170.482 26.7773C170.028 27.001 169.499 27.1128 168.895 27.1128ZM176.358 27.1341C175.839 27.1341 175.369 27.0365 174.946 26.8412C174.523 26.6423 174.188 26.3564 173.939 25.9836C173.691 25.6072 173.566 25.1526 173.566 24.6199C173.566 24.1512 173.659 23.7712 173.843 23.48C174.028 23.1853 174.275 22.9545 174.584 22.7876C174.893 22.6206 175.234 22.4964 175.606 22.4147C175.983 22.3295 176.361 22.262 176.741 22.2123C177.238 22.1483 177.641 22.1004 177.95 22.0684C178.263 22.0329 178.49 21.9743 178.632 21.8927C178.778 21.811 178.85 21.6689 178.85 21.4665V21.4239C178.85 20.8983 178.707 20.49 178.419 20.1988C178.135 19.9076 177.703 19.762 177.125 19.762C176.524 19.762 176.054 19.8934 175.713 20.1562C175.372 20.4189 175.132 20.6995 174.994 20.9978L173.801 20.5716C174.014 20.0745 174.298 19.6874 174.653 19.4104C175.012 19.1299 175.402 18.9346 175.825 18.8245C176.251 18.7108 176.67 18.654 177.082 18.654C177.345 18.654 177.647 18.686 177.988 18.7499C178.332 18.8103 178.664 18.9363 178.984 19.1281C179.307 19.3199 179.575 19.6093 179.788 19.9964C180.001 20.3834 180.108 20.9019 180.108 21.5518V26.9424H178.85V25.8344H178.787C178.701 26.012 178.559 26.202 178.36 26.4044C178.162 26.6068 177.897 26.779 177.567 26.9211C177.236 27.0631 176.833 27.1341 176.358 27.1341ZM176.549 26.0049C177.046 26.0049 177.466 25.9072 177.806 25.7119C178.151 25.5166 178.41 25.2645 178.584 24.9555C178.762 24.6466 178.85 24.3216 178.85 23.9807V22.8302C178.797 22.8941 178.68 22.9527 178.499 23.0059C178.321 23.0557 178.115 23.1001 177.881 23.1391C177.65 23.1746 177.425 23.2066 177.205 23.235C176.988 23.2599 176.812 23.2812 176.677 23.2989C176.35 23.3415 176.045 23.4108 175.761 23.5067C175.48 23.599 175.253 23.7393 175.079 23.9275C174.909 24.1121 174.823 24.3643 174.823 24.6839C174.823 25.1206 174.985 25.4509 175.308 25.6746C175.635 25.8948 176.049 26.0049 176.549 26.0049Z" fill="white"/>
</svg>
